# xmcd
#
# Track frame offsets:
#	150
#	14193
#	34009
#	47599
#	59177
#	72298
#	85172
#	95640
#	109470
#	122511
#	134248
#	151209
#	163503
#	177987
#
# Disc length: 2619 seconds
#
# Revision: 1
# Processed by: cddbd v1.5.1PL2 Copyright (c) Steve Scherf et al.
# Submitted via: audiograbber 1.83.01
#
DISCID=cc0a390e
DTITLE=Various Artist - The Best Of Country CD 1
DYEAR=1900
DGENRE=Country
TTITLE0=John Denver - Annie's Song
TTITLE1=The Bellamy Brothers - If I Said You Have A Beautiful Body
TTITLE2=Tammy Wynette - Stand By Your Man
TTITLE3=Dolly Parton - Makin' Believe
TTITLE4=Charlie Rich - The Most Beautiful Girl
TTITLE5=Kenny Rogers - Don't Take Your Love To Town
TTITLE6=Timi Yuro - Hurt
TTITLE7=Tom Jones - Green Green Grass Of Home
TTITLE8=Don Williams - Where Do I Go From Here
TTITLE9=Jim Reeves - Welcome To My World
TTITLE10=Lynn Anderson - Blue Bayou
TTITLE11=Freddy Fender - Wasted Days And Wasted Nights
TTITLE12=Glenn Campbell - Rhinestone Cowboy
TTITLE13=Juice Newton - Angel In The Morning
EXTD=
EXTT0=
EXTT1=
EXTT2=
EXTT3=
EXTT4=
EXTT5=
EXTT6=
EXTT7=
EXTT8=
EXTT9=
EXTT10=
EXTT11=
EXTT12=
EXTT13=
PLAYORDER=
